<?xml version="1.0" standalone="no"?><!DOCTYPE svg PUBLIC "-//W3C//DTD SVG 1.1//EN" "http://www.w3.org/Graphics/SVG/1.1/DTD/svg11.dtd"><svg t="1752657219477" class="icon" viewBox="0 0 1024 1024" version="1.1" xmlns="http://www.w3.org/2000/svg" p-id="1196" xmlns:xlink="http://www.w3.org/1999/xlink" width="200" height="200"><path d="M424.701414 695.906263c-17.519192-173.433535 93.465859-258.715152 105.050505-416.620606C541.349495 121.406061 430.62303 89.212121 430.62303 89.212121c47.321212 29.44 75.726869 81.545051 74.860606 137.270303-3.025455 75.416566-25.923232 148.686869-66.37899 212.402424C481.46101 206.429091 193.939394 145.713131 193.939394 145.713131c0 290.068687 141.226667 373.953939 220.315151 335.243637a445.984323 445.984323 0 0 0-72.02909 216.074343c0.129293 55.673535 12.774141 110.597172 37.003636 160.711111-70.050909 11.015758-121.742222 42.084848-121.742222 78.804041h361.528889c-2.262626-38.697374-58.466263-70.891313-134.167273-80.226263-9.32202-9.024646-46.028283-56.203636-60.16-160.426667h0.012929z m16.652929-41.800404C659.975758 798.694141 829.44 438.30303 829.44 412.599596c-411.24202-54.212525-388.085657 241.506263-388.085657 241.506263z m0 0" p-id="1197"></path></svg>